<?xml version="1.0" encoding="utf-8"?>
<!-- Generator: Adobe Illustrator 27.6.1, SVG Export Plug-In . SVG Version: 6.00 Build 0)  -->
<svg version="1.1" id="Layer_1" xmlns="http://www.w3.org/2000/svg" xmlns:xlink="http://www.w3.org/1999/xlink" x="0px" y="0px"
	 viewBox="0 0 608.21 123.57" style="enable-background:new 0 0 608.21 123.57;" xml:space="preserve">
<style type="text/css">
	.st0{display:none;fill-rule:evenodd;clip-rule:evenodd;fill:#121212;}
	
		.st1{clip-path:url(#SVGID_00000002384444144133258480000009148451614891065008_);fill:url(#SVGID_00000168805803073228519430000007881782527938498445_);}
	.st2{fill:#E31E67;}
	.st3{fill:#D01E71;}
	.st4{fill:#C01E7A;}
	.st5{fill:#AE1F85;}
	.st6{fill:#9C1F8F;}
	.st7{fill:#8D1F98;}
	.st8{fill:#831F9D;}
	.st9{fill:#FEFEFE;}
	
		.st10{clip-path:url(#SVGID_00000063628306838538402750000009094018859947717531_);fill:url(#SVGID_00000034775379172687973840000005101918799282876064_);}
	
		.st11{clip-path:url(#SVGID_00000033338355132924681040000012752211506097410457_);fill:url(#SVGID_00000044875953470941755500000006120378280379109766_);}
	.st12{fill:#BB2082;}
	.st13{fill:#8E24AA;}
	.st14{fill:#9F1565;}
	.st15{fill:#A8145C;}
	.st16{fill:#941770;}
	.st17{fill:#8C1778;}
	.st18{fill:#8F1775;}
	.st19{fill:#901774;}
	.st20{fill:#9723A3;}
	.st21{fill:#A42399;}
	.st22{fill:#AA2294;}
	.st23{fill:#B4228C;}
	
		.st24{clip-path:url(#SVGID_00000152226402694085886720000002308655565672205468_);fill:url(#SVGID_00000135690932287737349500000002164380836379684781_);}
	.st25{fill:#C8207D;}
	.st26{fill:#A82296;}
	.st27{fill:#B02290;}
	.st28{fill:#A62297;}
	.st29{fill:#761A8E;}
	.st30{fill:#7E1986;}
	.st31{fill:#85187F;}
	.st32{fill:#BD2185;}
	.st33{fill:#9B1669;}
	.st34{fill:#96166E;}
	.st35{fill:#DD1F6C;}
	.st36{fill:#E91E63;}
	.st37{fill:#D51F72;}
	.st38{fill:#C12182;}
	.st39{fill:#CA207C;}
	.st40{fill:#731A91;}
	.st41{fill:#6D1B97;}
	.st42{fill:#9224A7;}
	.st43{fill:#641998;}
	.st44{fill:#79198B;}
	.st45{fill:#811983;}
	.st46{fill:#6A1B9A;}
</style>
<rect class="st0" width="608.21" height="123.57"/>
<g>
	<defs>
		<polygon id="SVGID_1_" points="252.46,45.73 233.84,27.1 252.46,27.1 		"/>
	</defs>
	<clipPath id="SVGID_00000069393897119151573300000002659032204301377968_">
		<use xlink:href="#SVGID_1_"  style="overflow:visible;"/>
	</clipPath>
	
		<linearGradient id="SVGID_00000132770369562683098930000009936778169072107152_" gradientUnits="userSpaceOnUse" x1="243.1467" y1="45.3441" x2="243.1566" y2="27.1041">
		<stop  offset="0" style="stop-color:#7B1FA2"/>
		<stop  offset="1" style="stop-color:#E91E63"/>
	</linearGradient>
	
		<rect x="233.84" y="27.1" style="clip-path:url(#SVGID_00000069393897119151573300000002659032204301377968_);fill:url(#SVGID_00000132770369562683098930000009936778169072107152_);" width="18.62" height="18.62"/>
</g>
<polygon class="st2" points="236.5,29.76 233.84,27.1 252.46,27.1 252.46,29.76 "/>
<polygon class="st3" points="239.16,32.43 236.5,29.76 252.46,29.76 252.46,32.43 "/>
<polygon class="st4" points="241.82,35.09 239.16,32.43 252.46,32.43 252.46,35.09 "/>
<polygon class="st5" points="244.48,37.75 241.82,35.09 252.46,35.09 252.46,37.75 "/>
<polygon class="st6" points="247.14,40.41 244.48,37.75 252.46,37.75 252.46,40.41 "/>
<polygon class="st7" points="249.8,43.07 247.14,40.41 252.46,40.41 252.46,43.07 "/>
<polygon class="st8" points="252.46,45.73 249.8,43.07 252.46,43.07 "/>
<path class="st9" d="M282.5,38.19c-0.34,0.08-0.66,0.2-0.97,0.35c-0.32,0.16-0.63,0.37-0.92,0.61c-0.3,0.25-0.59,0.55-0.87,0.89
	c-0.28,0.34-0.52,0.71-0.73,1.09c-0.21,0.38-0.38,0.79-0.52,1.22c-0.14,0.44-0.25,0.9-0.32,1.37c-0.06,0.39-0.05,1.98-0.06,2.4h8.99
	v11.05h-8.83v35.22h-12.88V57.16h-6.33V46.12h6.42c0.09-1.04,0.18-3.24,0.37-4.2c0.23-1.16,0.54-2.27,0.93-3.32
	c0.42-1.15,0.94-2.24,1.55-3.27c0.61-1.02,1.32-1.98,2.11-2.86c0.79-0.88,1.66-1.66,2.58-2.34c0.92-0.67,1.91-1.23,2.95-1.68
	c1.03-0.45,2.13-0.78,3.29-1.01c1.15-0.22,2.35-0.33,3.6-0.33c0.63,0,1.31,0.04,2.03,0.11c0.71,0.07,1.46,0.18,2.23,0.31
	c1.97,0.36,4.44,1.17,6.2,2.05l-3.83,9.92C287.69,38.63,284.52,37.73,282.5,38.19"/>
<polygon class="st9" points="239.42,91.03 239.42,57.16 233.84,57.16 233.84,46.12 252.46,46.12 252.46,92.38 239.42,92.38 "/>
<path class="st9" d="M214.85,91.03V64.2c0-0.59-0.05-1.15-0.14-1.67c-0.09-0.51-0.22-1-0.4-1.46c-0.17-0.45-0.39-0.87-0.66-1.26
	c-0.26-0.39-0.57-0.76-0.92-1.09c-0.35-0.34-0.74-0.64-1.14-0.9c-0.42-0.26-0.85-0.47-1.31-0.64c-0.47-0.17-0.98-0.31-1.51-0.39
	c-0.53-0.09-1.1-0.13-1.71-0.13c-0.37,0-0.74,0.02-1.09,0.07c-0.37,0.05-0.74,0.12-1.1,0.22c-0.38,0.1-0.76,0.23-1.13,0.37
	c-0.4,0.16-0.78,0.34-1.15,0.53c-0.37,0.21-0.74,0.42-1.07,0.65c-0.33,0.21-0.62,0.44-0.89,0.66c-0.23,0.19-0.43,0.39-0.62,0.59
	l-0.36,0.43v32.2h-13.04V30.19l13.04-3.09v20.45l0.81-0.44c0.66-0.33,1.36-0.62,2.09-0.86c0.97-0.32,2.01-0.57,3.12-0.73
	c1.1-0.16,2.26-0.24,3.47-0.24c1.42,0,2.79,0.1,4.08,0.31c1.3,0.2,2.52,0.51,3.64,0.91c1.14,0.41,2.21,0.93,3.21,1.55
	c0.99,0.62,1.91,1.35,2.73,2.18c0.82,0.83,1.55,1.75,2.17,2.76c0.61,1,1.13,2.09,1.54,3.27c0.4,1.17,0.71,2.41,0.91,3.73
	c0.2,1.31,0.3,2.71,0.3,4.19v28.21h-12.87V91.03z"/>
<path class="st9" d="M147.45,87.69l4.32-9.73l1.37,1.1c0.7,0.57,1.43,1.06,2.17,1.48c0.74,0.42,1.5,0.77,2.28,1.05
	c0.78,0.28,1.59,0.49,2.42,0.63c0.82,0.14,1.68,0.21,2.57,0.21c0.87,0,1.62-0.07,2.24-0.21c0.59-0.13,1.06-0.33,1.42-0.59
	c0.3-0.22,0.53-0.49,0.67-0.81c0.16-0.35,0.24-0.77,0.24-1.26c0-0.65-0.11-1.23-0.33-1.73c-0.1-0.24-0.24-0.47-0.41-0.69
	c-0.17-0.23-0.37-0.44-0.59-0.64c-0.25-0.23-0.58-0.47-0.98-0.73c-0.39-0.26-0.87-0.54-1.43-0.84c-0.55-0.3-1.18-0.61-1.88-0.94
	c-0.7-0.33-1.46-0.66-2.28-1c-1.96-0.81-3.69-1.72-5.18-2.72c-1.5-1-2.76-2.1-3.77-3.28c-1.04-1.22-1.83-2.52-2.35-3.92
	c-0.53-1.4-0.79-2.89-0.79-4.45c0-1.04,0.1-2.03,0.3-2.97c0.2-0.94,0.51-1.83,0.91-2.66c0.41-0.83,0.92-1.61,1.53-2.33
	c0.61-0.71,1.31-1.37,2.12-1.96c0.78-0.57,1.62-1.07,2.52-1.5c0.89-0.43,1.83-0.79,2.81-1.07c0.97-0.28,2-0.49,3.1-0.63
	c1.08-0.14,2.21-0.21,3.38-0.21c1.18,0,2.35,0.07,3.5,0.2c1.15,0.13,2.28,0.33,3.39,0.6c1.11,0.26,2.21,0.6,3.29,1
	c1.09,0.4,2.15,0.87,3.19,1.39l1.07,0.55l-4.01,10.82l-1.47-1.25c-0.48-0.41-1.02-0.77-1.6-1.08c-0.59-0.31-1.22-0.58-1.9-0.78
	c-0.7-0.21-1.45-0.37-2.27-0.48c-0.81-0.11-1.68-0.16-2.62-0.16c-0.76,0-1.4,0.07-1.93,0.2c-0.5,0.13-0.9,0.31-1.21,0.56
	c-0.26,0.21-0.47,0.48-0.6,0.81c-0.14,0.35-0.22,0.79-0.22,1.3c0,0.16,0.02,0.32,0.06,0.47c0.04,0.15,0.11,0.3,0.19,0.45
	c0.09,0.17,0.22,0.34,0.38,0.5c0.16,0.17,0.36,0.35,0.59,0.53c0.25,0.19,0.58,0.41,0.99,0.64c0.42,0.24,0.93,0.5,1.52,0.79
	c0.56,0.27,1.25,0.58,2.07,0.94l2.55,1.05c0.99,0.39,1.92,0.8,2.78,1.24c0.87,0.44,1.67,0.9,2.4,1.38c0.74,0.49,1.42,1.01,2.03,1.56
	c0.62,0.55,1.16,1.13,1.62,1.72c0.47,0.6,0.88,1.23,1.23,1.9c0.35,0.66,0.65,1.35,0.88,2.08c0.23,0.72,0.41,1.47,0.53,2.24
	c0.12,0.77,0.17,1.58,0.17,2.4c0,1.11-0.1,2.16-0.31,3.16c-0.21,1-0.53,1.95-0.94,2.84c-0.42,0.89-0.95,1.73-1.58,2.5
	c-0.63,0.77-1.36,1.48-2.19,2.12c-0.81,0.63-1.7,1.19-2.67,1.66c-0.96,0.47-2,0.87-3.08,1.18c-1.07,0.31-2.22,0.54-3.45,0.69
	c-1.22,0.15-2.5,0.23-3.83,0.23c-1.49,0-2.85-0.06-4.08-0.19c-1.23-0.12-2.31-0.32-3.25-0.57c-0.47-0.13-0.98-0.3-1.51-0.49
	c-0.55-0.2-1.11-0.43-1.68-0.67l-1.84-0.85l-3.1-1.61L147.45,87.69z"/>
<path class="st9" d="M298.34,57h-5.08V46.12h5.08v-8.43l12.88-4.74v13.16h11.99V57h-11.99v17.74c0,0.75,0.03,1.43,0.08,2.04
	c0.05,0.62,0.14,1.17,0.25,1.67c0.1,0.45,0.23,0.86,0.38,1.23c0.14,0.34,0.3,0.63,0.48,0.87c0.17,0.22,0.37,0.41,0.59,0.57
	c0.24,0.17,0.51,0.31,0.82,0.43c0.34,0.12,0.73,0.22,1.17,0.29c0.45,0.07,0.94,0.1,1.48,0.1c1.11,0,2.17-0.15,3.19-0.44
	c1.02-0.3,2.01-0.75,2.96-1.34l2.08-1.31V91.6l-0.91,0.32c-0.65,0.23-1.36,0.42-2.12,0.58c-0.76,0.16-1.59,0.3-2.46,0.4
	c-0.85,0.1-1.78,0.18-2.81,0.23c-1.02,0.05-2.08,0.08-3.17,0.08c-1.15,0-2.25-0.08-3.29-0.25c-1.05-0.17-2.03-0.42-2.94-0.76
	c-0.93-0.34-1.8-0.77-2.59-1.28c-0.8-0.51-1.53-1.12-2.19-1.81c-0.65-0.69-1.23-1.45-1.72-2.28c-0.49-0.82-0.9-1.73-1.22-2.69
	c-0.32-0.96-0.56-1.98-0.72-3.05c-0.16-1.08-0.24-2.21-0.24-3.41V57z"/>
<path class="st9" d="M361.7,87.31c-1.52,1.55-3.54,2.75-5.86,3.61c-2.9,1.07-6.26,1.61-9.62,1.61c-1.79,0-3.48-0.33-5.04-0.99
	c-1.56-0.65-3-1.64-4.31-2.94c-1.32-1.31-2.31-2.78-2.97-4.4c-0.66-1.63-0.99-3.41-0.99-5.35c0-2.32,0.51-4.47,1.52-6.44
	c1.01-1.96,2.52-3.73,4.52-5.32c1.95-1.55,4.36-2.72,7.03-3.51c2.76-0.81,5.8-1.22,8.92-1.22c1.44,0,3.64,0.28,5.59,0.83
	c-0.18-2.73-1.15-4.84-2.67-6.31c-1.83-1.77-4.5-2.65-7.59-2.65c-2.34,0-4.4,0.31-6.18,0.94c-1.76,0.62-3.25,1.55-4.49,2.78
	l-0.66,0.66l-3.91-7.82l0.42-0.34c0.77-0.63,1.69-1.21,2.75-1.74c1.05-0.53,2.24-1.01,3.55-1.43c1.33-0.43,2.62-0.76,3.9-0.98
	c1.28-0.22,2.53-0.33,3.74-0.33c3.33,0,6.62,0.4,9.43,1.19c2.66,0.75,4.9,1.86,6.36,3.33c1.51,1.51,2.64,3.47,3.38,5.86
	c0.74,2.35,1.11,5.13,1.11,8.33V80.3c0,1.82,0.27,3.32,0.79,4.5c0.51,1.13,1.27,1.99,2.27,2.55l0.35,0.19v4.91h-0.68
	c-1.61,0-3.03-0.12-4.25-0.35c-1.25-0.23-2.31-0.6-3.15-1.08c-0.86-0.49-1.6-1.14-2.21-1.95C362.34,88.56,362,87.97,361.7,87.31
	 M360.52,70.17c-0.89-0.19-1.78-0.34-2.58-0.45c-1.15-0.16-2.11-0.24-2.62-0.24c-1.94,0-3.9,0.26-5.65,0.78
	c-1.63,0.48-3.09,1.18-4.21,2.09c-1.16,0.95-2.02,1.98-2.59,3.09c-0.56,1.09-0.85,2.27-0.85,3.54c0,2.06,0.59,3.6,1.76,4.59
	c1.2,1.03,3.05,1.54,5.54,1.54c3.66,0,8.33-1.72,11.2-5.14V70.17z"/>
<path class="st9" d="M396.88,92.54h-2.43c-6.93-15.29-13.94-30.55-20.92-45.82h10l12.66,29.45l12.98-29.45h9.58
	c-7.14,15.28-14.26,30.57-21.44,45.82H396.88z"/>
<path class="st9" d="M460.01,70.72h-30.67c0.06,2.19,0.39,4.14,0.99,5.85c0.66,1.86,1.65,3.43,2.97,4.72
	c1.17,1.13,2.5,1.97,3.99,2.54c1.5,0.57,3.19,0.85,5.04,0.85c2.13,0,4.08-0.31,5.85-0.94c1.76-0.62,3.34-1.56,4.75-2.8l0.62-0.55
	l3.93,6.75l-0.37,0.37c-0.64,0.64-1.45,1.23-2.41,1.78c-0.95,0.54-2.06,1.04-3.32,1.49c-1.59,0.59-3.26,1.03-5.02,1.32
	c-1.76,0.29-3.61,0.44-5.53,0.44c-2.82,0-5.44-0.48-7.85-1.45c-2.4-0.96-4.59-2.4-6.57-4.32c-2.2-2.11-3.85-4.6-4.95-7.44
	c-1.1-2.84-1.64-6.03-1.64-9.56c0-3.68,0.56-7,1.68-9.97c1.12-2.97,2.81-5.58,5.07-7.82c2.01-2,4.22-3.5,6.61-4.5
	c2.39-1,4.97-1.51,7.73-1.51c3.17,0,6.02,0.45,8.54,1.36c2.53,0.91,4.71,2.28,6.54,4.1c1.78,1.76,3.11,3.8,4,6.12
	c0.88,2.31,1.33,4.9,1.33,7.77c0,0.88-0.06,1.73-0.16,2.56c-0.11,0.83-0.27,1.62-0.48,2.36l-0.14,0.5H460.01z M441.28,53.82
	c-1.65,0-3.15,0.27-4.51,0.79c-1.36,0.53-2.59,1.32-3.69,2.37c-1.06,1.01-1.88,2.14-2.48,3.39c-0.49,1.04-0.84,2.18-1.02,3.4h22.69
	c-0.06-1.23-0.29-2.37-0.67-3.42c-0.45-1.23-1.14-2.33-2.06-3.32c-1-1.07-2.19-1.87-3.55-2.41
	C444.61,54.09,443.04,53.82,441.28,53.82z"/>
<path class="st9" d="M497.01,91.03V65.67c0-4.49-0.65-7.6-1.96-9.33c-0.62-0.83-1.46-1.45-2.51-1.87c-1.08-0.43-2.41-0.65-3.96-0.65
	c-0.9,0-2.04,0.14-3.2,0.43c-0.99,0.25-2,0.61-2.84,1.07c-0.92,0.51-1.73,1.07-2.43,1.68c-0.64,0.56-1.19,1.18-1.65,1.84V91.7h-9.1
	V46.8h6.41l2.13,4.88c1.27-1.7,2.93-3.02,4.88-3.96c2.41-1.17,5.27-1.75,8.32-1.75c4.98,0,8.74,1.54,11.26,4.6
	c2.49,3.03,3.74,7.53,3.74,13.49V91.7h-9.1V91.03z"/>
<path class="st9" d="M524.88,47.48v27.8c0,3.2,0.67,5.57,2.01,7.12c1.32,1.52,3.33,2.29,6.04,2.29c1.21,0,2.36-0.17,3.46-0.52
	c1.1-0.35,2.15-0.86,3.15-1.55c1-0.7,1.84-1.45,2.49-2.25c0.62-0.75,1.09-1.55,1.4-2.4V46.8h9.1V91.7h-9.1v-4.56
	c-0.25,0.27-0.52,0.54-0.81,0.81c-0.91,0.82-2.05,1.6-3.4,2.35c-1.36,0.74-2.71,1.3-4.03,1.67c-1.34,0.38-2.67,0.57-3.97,0.57
	c-2.45,0-4.64-0.36-6.55-1.07c-1.92-0.72-3.56-1.81-4.9-3.25c-1.34-1.44-2.34-3.18-3-5.22c-0.66-2.02-0.98-4.33-0.98-6.92V46.8h9.1
	V47.48z"/>
<path class="st9" d="M600.38,70.72H569.7c0.06,2.19,0.39,4.14,0.99,5.85c0.66,1.86,1.65,3.43,2.97,4.72
	c1.17,1.13,2.5,1.97,3.99,2.54c1.5,0.57,3.19,0.85,5.04,0.85c2.13,0,4.08-0.31,5.85-0.94c1.76-0.62,3.34-1.56,4.75-2.8l0.62-0.55
	l3.93,6.75l-0.37,0.37c-0.64,0.64-1.45,1.23-2.41,1.78c-0.95,0.54-2.06,1.04-3.32,1.49c-1.58,0.59-3.26,1.03-5.02,1.32
	c-1.76,0.29-3.61,0.44-5.53,0.44c-2.82,0-5.44-0.48-7.85-1.45c-2.4-0.96-4.59-2.4-6.57-4.32c-2.2-2.11-3.85-4.6-4.95-7.44
	c-1.1-2.84-1.64-6.03-1.64-9.56c0-3.68,0.56-7,1.68-9.97c1.12-2.97,2.81-5.58,5.07-7.82c2.01-2,4.22-3.5,6.61-4.5
	c2.39-1,4.97-1.51,7.73-1.51c3.17,0,6.02,0.45,8.54,1.36c2.53,0.91,4.71,2.28,6.54,4.1c1.78,1.76,3.11,3.8,4,6.12
	c0.88,2.31,1.33,4.9,1.33,7.77c0,0.88-0.06,1.73-0.16,2.56c-0.11,0.83-0.27,1.62-0.48,2.36l-0.14,0.5H600.38z M581.64,53.82
	c-1.65,0-3.15,0.27-4.51,0.79c-1.36,0.53-2.59,1.32-3.69,2.37c-1.06,1.01-1.88,2.14-2.47,3.39c-0.49,1.04-0.84,2.18-1.02,3.4h22.69
	c-0.06-1.23-0.28-2.37-0.67-3.42c-0.45-1.23-1.14-2.33-2.06-3.32c-1-1.07-2.19-1.87-3.55-2.41
	C584.98,54.09,583.4,53.82,581.64,53.82z"/>
<g>
	<defs>
		<path id="SVGID_00000044172352087515482480000003087228031324795058_" d="M134.98,116.42c0.43,0.74,0.33,1.63-0.23,2.26
			c-0.57,0.64-1.44,0.83-2.22,0.49l-13.66-5.91c-19.92-8.62-24.71-10.7-48.05-20.8V78.97l18.36,7.94l19.31,8.36L98.7,78.31
			L70.82,66.24V52.76l36.54,15.82C116.69,84.74,125.69,100.32,134.98,116.42 M100.16,56.09c0.09,0.15,0.12,0.31,0.11,0.47
			c-0.01,0.15-0.08,0.3-0.2,0.43c-0.11,0.13-0.26,0.21-0.41,0.25c-0.15,0.03-0.32,0.02-0.48-0.05l-15.77-5.35L70.82,30.04V7.23h0
			c0.7,0,1.3,0.34,1.66,0.94L72.5,8.2C81.72,24.16,90.94,40.13,100.16,56.09z"/>
	</defs>
	<clipPath id="SVGID_00000176758545463670415130000012430083648768011689_">
		<use xlink:href="#SVGID_00000044172352087515482480000003087228031324795058_"  style="overflow:visible;"/>
	</clipPath>
	
		<linearGradient id="SVGID_00000084505788078907830950000009551801333170393753_" gradientUnits="userSpaceOnUse" x1="124.7243" y1="100.5318" x2="69.3043" y2="5.2219">
		<stop  offset="0" style="stop-color:#8E24AA"/>
		<stop  offset="1" style="stop-color:#E91E63"/>
	</linearGradient>
	
		<rect x="70.82" y="7.23" style="clip-path:url(#SVGID_00000176758545463670415130000012430083648768011689_);fill:url(#SVGID_00000084505788078907830950000009551801333170393753_);" width="64.59" height="112.28"/>
</g>
<g>
	<defs>
		<path id="SVGID_00000111169215016662013930000013237756614312192666_" d="M53.34,60.32l-19.06,8.26l8.67,9.73l27.87-12.07V52.76
			L53.34,60.32z M33.15,95.28l-10.38,17.98l-13.66,5.91c-0.78,0.34-1.65,0.15-2.22-0.49c-0.57-0.64-0.66-1.52-0.23-2.26l7.45-12.91
			L19,95.04l16.9-7.32c0.31-0.13,0.66-0.06,0.89,0.2c0.23,0.25,0.26,0.61,0.09,0.9l-3.72,6.44l19.3-8.35l18.36-7.94v13.49
			l-27.85,12.06l-20.2,8.74L33.15,95.28L33.15,95.28z M57,29.23l6.18-10.71L69.14,8.2l0.02-0.03l0.02-0.03
			c0.36-0.58,0.95-0.91,1.64-0.91v22.81l-6.25,10.82l-6.34,10.98l-4.9,8.48l-19.06,8.26l-7.45,12.89c-0.43,0.74-0.33,1.63,0.23,2.26
			c0.57,0.64,1.44,0.83,2.22,0.49l13.67-5.92l-8.67-9.73l8.88-15.37l6.74-11.68v0h0L57,29.23z"/>
	</defs>
	<clipPath id="SVGID_00000098209878778749599130000007666399673427899267_">
		<use xlink:href="#SVGID_00000111169215016662013930000013237756614312192666_"  style="overflow:visible;"/>
	</clipPath>
	
		<linearGradient id="SVGID_00000131332945835139253740000001465822816141316745_" gradientUnits="userSpaceOnUse" x1="17.273" y1="99.9199" x2="72.333" y2="5.22">
		<stop  offset="0" style="stop-color:#6A1B9A"/>
		<stop  offset="1" style="stop-color:#AD1457"/>
	</linearGradient>
	
		<rect x="6.23" y="7.23" style="clip-path:url(#SVGID_00000098209878778749599130000007666399673427899267_);fill:url(#SVGID_00000131332945835139253740000001465822816141316745_);" width="64.59" height="112.28"/>
</g>
<path class="st12" d="M83.41,51.84l8.34-10.32l8.41,14.57c0.09,0.15,0.12,0.31,0.11,0.47c-0.01,0.15-0.08,0.3-0.2,0.43
	c-0.11,0.13-0.26,0.21-0.41,0.25c-0.15,0.03-0.32,0.02-0.48-0.05L83.41,51.84z"/>
<path class="st13" d="M127.53,103.51l-8.65,9.75l13.66,5.91c0.78,0.34,1.65,0.15,2.22-0.49c0.57-0.64,0.66-1.52,0.23-2.26
	L127.53,103.51z"/>
<polygon class="st14" points="57,29.23 63.18,18.52 70.82,30.04 "/>
<path class="st15" d="M70.82,30.04V7.23c-0.69,0-1.28,0.33-1.64,0.91l-0.02,0.03L69.14,8.2l-5.96,10.32L70.82,30.04z"/>
<polygon class="st16" points="58.23,51.84 64.57,40.86 49.89,41.53 "/>
<polygon class="st17" points="43.15,53.21 58.23,51.84 53.34,60.32 "/>
<polygon class="st18" points="43.15,53.21 49.89,41.53 58.23,51.84 "/>
<polygon class="st19" points="70.82,52.76 70.82,66.24 53.34,60.32 "/>
<polygon class="st20" points="127.53,103.51 108.49,95.27 117.74,86.55 "/>
<polygon class="st21" points="108.49,95.27 98.7,78.31 117.74,86.55 "/>
<polygon class="st22" points="117.74,86.55 98.7,78.31 107.37,68.58 "/>
<polygon class="st23" points="88.3,60.32 107.36,68.58 98.69,78.31 "/>
<g>
	<defs>
		<polygon id="SVGID_00000022544533769910020480000004753433173092328581_" points="72.1,66.8 83.77,58.36 86.21,59.42 96.6,77.4 		
			"/>
	</defs>
	<clipPath id="SVGID_00000152262901486071994180000002634398403584343966_">
		<use xlink:href="#SVGID_00000022544533769910020480000004753433173092328581_"  style="overflow:visible;"/>
	</clipPath>
	
		<linearGradient id="SVGID_00000134240992859830746650000016495790378139639977_" gradientUnits="userSpaceOnUse" x1="110.0461" y1="112.3853" x2="52.6763" y2="13.0254">
		<stop  offset="0" style="stop-color:#861F9C"/>
		<stop  offset="1" style="stop-color:#E91E63"/>
	</linearGradient>
	
		<rect x="72.1" y="58.36" style="clip-path:url(#SVGID_00000152262901486071994180000002634398403584343966_);fill:url(#SVGID_00000134240992859830746650000016495790378139639977_);" width="24.49" height="19.04"/>
</g>
<polygon class="st25" points="70.82,66.24 70.82,52.76 88.3,60.32 "/>
<polygon class="st26" points="98.67,104.51 89.18,86.91 70.82,92.45 "/>
<polygon class="st27" points="70.82,78.97 70.82,92.45 89.18,86.91 "/>
<polygon class="st28" points="108.49,95.27 89.18,86.91 98.67,104.51 "/>
<path class="st29" d="M42.95,78.31l-8.67-9.73l-7.45,12.89c-0.43,0.74-0.33,1.63,0.23,2.26c0.57,0.64,1.44,0.83,2.22,0.49
	L42.95,78.31z"/>
<polygon class="st30" points="53.34,60.32 34.28,68.58 42.95,78.31 "/>
<polygon class="st31" points="70.82,66.24 53.34,60.32 42.95,78.31 "/>
<polygon class="st32" points="70.82,66.24 88.3,60.32 98.69,78.31 "/>
<polygon class="st33" points="70.82,30.04 57,29.23 64.57,40.86 "/>
<polygon class="st34" points="49.89,41.53 57,29.23 64.57,40.86 "/>
<polygon class="st35" points="84.65,29.23 78.46,18.52 70.82,30.04 "/>
<path class="st36" d="M70.82,30.04V7.23h0c0.7,0,1.3,0.34,1.66,0.94L72.5,8.2l5.96,10.32L70.82,30.04z"/>
<polygon class="st37" points="70.82,30.04 84.65,29.23 77.07,40.86 "/>
<polygon class="st38" points="91.75,41.53 77.07,40.86 83.41,51.84 "/>
<polygon class="st39" points="91.75,41.53 84.65,29.23 77.07,40.86 "/>
<path class="st40" d="M33.16,95.27L19,95.04l16.9-7.32c0.31-0.13,0.66-0.06,0.89,0.2c0.23,0.25,0.26,0.61,0.09,0.9L33.16,95.27z"/>
<polygon class="st41" points="14.11,103.51 19,95.04 33.16,95.27 "/>
<polygon class="st31" points="43.15,53.21 53.34,60.32 34.27,68.58 "/>
<polygon class="st42" points="127.53,103.51 108.49,95.27 118.87,113.26 "/>
<polygon class="st20" points="98.67,104.51 108.49,95.27 118.87,113.26 "/>
<path class="st43" d="M14.11,103.51l8.66,9.75l-13.66,5.91c-0.78,0.34-1.65,0.15-2.22-0.49c-0.57-0.64-0.66-1.52-0.23-2.26
	L14.11,103.51z"/>
<polygon class="st44" points="42.97,104.51 52.46,86.91 70.82,92.45 "/>
<polygon class="st45" points="70.82,78.97 70.82,92.45 52.46,86.91 "/>
<polygon class="st29" points="33.15,95.27 52.46,86.91 42.97,104.51 "/>
<polygon class="st46" points="14.11,103.51 33.15,95.27 22.77,113.26 "/>
<polygon class="st41" points="42.97,104.51 33.15,95.27 22.77,113.26 "/>
</svg>
